<?xml version="1.0" standalone="no"?>
<!DOCTYPE svg PUBLIC "-//W3C//DTD SVG 20010904//EN"
 "http://www.w3.org/TR/2001/REC-SVG-20010904/DTD/svg10.dtd">
<svg version="1.0" xmlns="http://www.w3.org/2000/svg"
 width="1024.000000pt" height="1024.000000pt" viewBox="0 0 1024.000000 1024.000000"
 preserveAspectRatio="xMidYMid meet">

<g transform="translate(0.000000,1024.000000) scale(0.100000,-0.100000)"
fill="#000000" stroke="none">
<path d="M4945 8304 c-139 -130 -168 -162 -178 -203 -12 -50 34 -117 89 -127
38 -7 66 6 117 54 l38 37 -3 -149 -3 -149 -106 -18 c-202 -34 -422 -119 -605
-232 -134 -83 -187 -125 -306 -243 l-107 -107 -109 104 -110 104 40 3 c52 4
82 24 103 69 22 46 8 102 -33 129 -24 17 -47 19 -234 17 -229 -2 -247 -6 -267
-65 -6 -18 -11 -112 -11 -225 0 -216 7 -251 59 -277 93 -49 184 33 166 150 -3
24 -3 48 0 54 3 5 63 -46 133 -115 l126 -125 -17 -28 c-46 -70 -129 -257 -157
-353 -36 -129 -60 -276 -60 -381 l0 -77 -200 -3 c-110 -2 -200 -1 -200 2 0 3
14 18 31 35 39 36 62 89 53 118 -20 67 -101 104 -160 72 -35 -19 -262 -255
-283 -294 -28 -52 -9 -84 142 -237 138 -140 143 -144 184 -144 74 0 128 70
109 144 -3 14 -18 38 -32 55 l-26 31 201 0 c185 0 201 -1 201 -17 0 -10 11
-66 25 -125 60 -266 210 -538 410 -743 131 -134 142 -138 390 -145 182 -6 207
-9 275 -33 177 -63 308 -196 371 -377 21 -60 23 -86 27 -332 l4 -268 -101 0
-101 0 0 198 c0 218 -12 296 -55 382 -35 69 -110 141 -182 177 l-58 28 -282 5
-282 5 -32 30 c-17 17 -112 133 -211 258 -99 125 -193 234 -209 242 -63 33
-152 7 -184 -54 -33 -64 -22 -91 105 -266 47 -66 134 -188 192 -270 130 -184
172 -233 243 -280 75 -49 149 -73 264 -84 173 -17 262 -63 331 -172 28 -42 34
-63 38 -125 4 -69 3 -74 -16 -74 -11 0 -32 -14 -46 -31 -48 -56 -25 -154 44
-191 33 -17 72 -18 628 -18 563 0 595 1 630 19 93 48 96 187 6 221 -21 9 -24
16 -24 68 0 104 66 199 178 256 48 24 91 34 257 56 111 14 209 62 283 137 31
32 109 132 171 223 63 91 148 211 189 268 90 126 116 181 108 228 -14 74 -89
122 -160 103 -48 -13 -78 -40 -148 -132 -166 -220 -297 -373 -343 -400 -13 -8
-108 -14 -285 -17 l-265 -5 -65 -31 c-82 -39 -151 -109 -193 -194 l-32 -65 -3
-247 -3 -248 -99 0 -98 0 -7 118 c-13 197 -1 393 29 488 44 138 159 275 286
339 94 48 146 57 355 64 251 9 258 12 400 155 224 227 342 459 422 831 l9 40
198 3 198 2 -30 -34 c-39 -44 -47 -84 -28 -129 16 -40 59 -67 104 -67 34 0 71
27 183 137 121 117 149 157 149 209 0 41 -5 49 -124 177 -69 74 -136 141 -150
150 -35 23 -97 22 -129 -3 -30 -24 -51 -81 -43 -116 4 -13 23 -42 42 -64 l36
-40 -190 0 -191 0 -5 53 c-3 28 -8 81 -11 117 -8 91 -52 280 -86 374 -16 43
-55 129 -88 191 l-60 113 120 108 c66 60 125 111 130 112 5 2 9 -24 9 -58 0
-98 39 -150 112 -150 27 0 47 8 70 29 l33 29 3 227 c4 259 3 262 -73 291 -40
15 -69 16 -228 11 -156 -6 -185 -9 -207 -25 -76 -57 -37 -174 65 -191 l36 -6
-100 -104 -101 -103 -76 81 c-261 277 -585 442 -1016 516 l-38 6 0 146 0 147
38 -36 c44 -42 68 -55 100 -52 85 6 130 102 80 170 -13 17 -82 87 -155 157
-178 172 -166 172 -348 1z m236 -765 c81 -25 149 -113 149 -195 0 -46 -28
-111 -59 -138 -19 -18 -21 -29 -21 -141 l0 -122 98 -32 c54 -17 125 -49 159
-71 l62 -39 89 72 c83 67 90 75 97 117 12 79 48 126 117 155 101 42 219 0 268
-95 39 -76 35 -147 -12 -216 -31 -46 -115 -88 -165 -82 -35 5 -44 0 -125 -71
-81 -71 -86 -77 -72 -96 34 -47 92 -177 104 -233 l13 -62 124 0 125 0 39 34
c83 71 188 67 264 -9 121 -120 55 -334 -109 -352 -66 -8 -109 3 -150 40 l-38
32 -131 -5 -132 -5 -3 -30 c-6 -58 -34 -141 -73 -214 -22 -40 -38 -74 -37 -75
2 -1 37 -31 79 -68 74 -65 76 -66 131 -66 112 1 188 -72 188 -181 0 -136 -110
-232 -251 -219 -81 8 -142 68 -154 153 -6 39 -15 50 -90 114 -46 39 -88 71
-92 71 -5 0 -25 -12 -44 -26 -46 -36 -163 -89 -226 -104 l-53 -12 0 -121 0
-121 41 -42 42 -43 -104 -110 -104 -111 -102 102 c-57 57 -103 107 -103 113 0
6 16 26 35 45 l35 34 0 125 0 126 -88 27 c-48 15 -121 47 -162 72 l-75 44 -35
-30 c-19 -16 -59 -48 -87 -71 -29 -23 -53 -49 -53 -57 0 -70 -56 -149 -119
-170 -92 -30 -192 8 -256 98 -25 37 -30 53 -30 106 0 52 5 70 28 105 40 60 79
81 153 81 60 0 61 0 137 66 42 36 77 69 77 72 0 4 -11 24 -25 45 -36 52 -64
120 -84 206 l-17 73 -130 -1 c-120 -2 -131 -4 -154 -25 -39 -37 -64 -46 -125
-46 -115 0 -187 70 -193 190 -3 53 0 75 16 106 40 77 97 114 178 114 56 0 105
-20 131 -54 21 -26 22 -26 152 -26 108 0 131 3 131 14 0 36 53 177 90 240 22
38 39 70 38 70 -2 1 -39 34 -83 73 -80 70 -81 71 -127 66 -95 -11 -181 60
-194 160 -18 132 80 247 211 247 54 0 120 -25 147 -56 25 -29 48 -89 48 -127
0 -25 6 -37 28 -49 15 -9 55 -42 90 -72 65 -57 76 -63 87 -46 13 21 144 86
215 106 l75 22 3 122 c2 111 1 125 -17 144 -37 40 -64 114 -57 161 11 67 55
128 117 159 58 29 92 32 150 15z"/>
<path d="M4990 6696 c-200 -58 -349 -211 -395 -407 -47 -201 8 -395 154 -539
113 -113 222 -160 367 -160 207 0 395 116 483 296 150 308 12 676 -298 795
-70 27 -242 35 -311 15z m173 -164 c9 -8 17 -28 17 -43 0 -23 6 -30 28 -35
132 -32 184 -163 74 -191 -22 -5 -31 0 -59 33 -34 38 -34 38 -101 36 -76 -4
-80 -5 -93 -39 -16 -42 3 -58 111 -93 163 -52 205 -95 205 -205 -1 -48 -6 -69
-28 -102 -26 -41 -88 -83 -122 -83 -11 0 -15 -10 -15 -35 0 -95 -113 -100
-123 -6 -4 30 -9 35 -58 51 -92 31 -133 101 -93 158 22 32 78 30 99 -2 33 -50
139 -63 180 -21 51 50 18 94 -90 121 -147 36 -205 90 -205 189 0 84 49 153
126 180 34 11 40 18 45 50 7 40 15 51 44 57 23 5 32 2 58 -20z"/>
<path d="M4334 8035 c-15 -23 -15 -27 0 -50 28 -42 86 -28 86 20 0 25 -29 55
-53 55 -9 0 -24 -11 -33 -25z"/>
<path d="M5832 8048 c-7 -7 -12 -24 -12 -38 0 -31 17 -50 45 -50 28 0 45 19
45 50 0 31 -17 50 -45 50 -12 0 -26 -5 -33 -12z"/>
<path d="M3977 7853 c-17 -16 -3 -48 39 -93 47 -51 70 -60 92 -38 20 20 14 37
-34 88 -43 46 -79 62 -97 43z"/>
<path d="M6158 7808 c-54 -57 -60 -91 -19 -96 17 -3 36 9 72 44 53 52 61 77
30 94 -29 15 -31 14 -83 -42z"/>
<path d="M3170 6771 c-5 -11 -10 -27 -10 -35 0 -10 -16 -20 -46 -27 -37 -10
-45 -15 -42 -32 2 -15 14 -24 41 -30 31 -8 39 -15 44 -38 12 -60 54 -60 66 -1
5 23 14 31 46 41 54 16 56 44 4 57 -29 7 -40 16 -48 39 -16 47 -38 58 -55 26z"/>
<path d="M7014 6773 c-17 -55 -24 -63 -52 -63 -29 0 -52 -16 -52 -36 0 -7 19
-18 41 -26 34 -11 44 -19 53 -48 15 -47 47 -48 62 -1 8 26 19 36 50 47 21 8
40 14 42 14 1 0 2 8 2 19 0 14 -12 22 -44 30 -40 10 -45 14 -48 43 -2 25 -8
34 -26 36 -14 2 -24 -3 -28 -15z"/>
<path d="M3331 5556 c-21 -26 -10 -69 22 -80 23 -8 31 -6 49 12 18 18 20 26
12 49 -7 21 -17 29 -40 31 -18 2 -36 -3 -43 -12z"/>
<path d="M6834 5545 c-15 -23 -15 -27 0 -50 20 -30 49 -32 76 -5 24 24 25 43
4 64 -24 24 -61 20 -80 -9z"/>
<path d="M3132 5448 c-34 -34 2 -98 48 -83 24 7 37 51 23 74 -13 20 -54 26
-71 9z"/>
<path d="M7031 5434 c-10 -22 -9 -31 4 -50 27 -41 85 -21 85 30 0 50 -68 66
-89 20z"/>
<path d="M2855 3296 c-18 -13 -19 -30 -16 -322 2 -265 5 -311 18 -326 20 -22
52 -23 81 -2 22 15 22 16 22 317 0 258 -2 306 -16 325 -17 25 -60 29 -89 8z"/>
<path d="M4023 3295 c-45 -32 -30 -128 23 -141 83 -21 135 75 74 136 -24 24
-67 26 -97 5z"/>
<path d="M6453 3284 c-21 -21 -24 -32 -20 -62 8 -47 29 -66 73 -66 70 0 102
90 48 133 -36 28 -70 26 -101 -5z"/>
<path d="M2362 3270 c-32 -30 -35 -72 -29 -349 6 -247 6 -256 27 -273 28 -23
63 -23 83 0 13 14 17 44 19 132 l3 115 116 0 c134 0 152 8 147 64 -4 51 -31
61 -160 61 l-108 0 0 59 c0 88 6 92 145 84 135 -7 165 4 165 61 0 61 -15 66
-211 66 -161 0 -177 -2 -197 -20z"/>
<path d="M4319 3264 l-24 -26 1 -285 0 -286 23 -18 c31 -25 66 -24 85 3 12 17
16 49 16 129 l0 107 124 3 c138 4 166 16 166 70 0 49 -29 59 -168 59 l-123 0
3 68 3 67 156 5 c161 5 181 10 194 51 6 19 -10 59 -29 71 -6 4 -99 8 -207 8
l-196 0 -24 -26z"/>
<path d="M3215 3101 c-80 -20 -144 -80 -165 -157 -7 -24 -11 -72 -8 -108 3
-53 10 -73 35 -108 81 -113 265 -133 336 -36 43 58 -9 108 -79 74 -52 -24
-110 -21 -139 9 -14 13 -25 29 -25 35 0 6 47 10 134 10 153 0 159 3 158 75 -2
92 -68 182 -149 204 -42 12 -55 12 -98 2z m101 -136 c40 -40 27 -50 -64 -53
-92 -3 -103 7 -57 53 33 34 87 34 121 0z"/>
<path d="M3542 3100 c-51 -21 -42 -62 33 -153 l57 -69 -66 -85 c-66 -86 -80
-125 -54 -151 18 -18 62 -15 89 7 13 10 42 44 64 75 22 30 42 56 45 55 3 0 25
-29 49 -65 25 -37 55 -71 67 -76 32 -15 73 -2 86 27 12 27 0 50 -86 157 l-46
56 65 77 c36 42 65 85 65 95 0 41 -55 64 -98 41 -10 -5 -37 -37 -61 -70 l-44
-61 -42 63 c-24 34 -55 68 -69 75 -15 7 -28 12 -29 11 -1 0 -12 -4 -25 -9z"/>
<path d="M4030 3080 c-19 -19 -20 -33 -20 -213 0 -181 1 -195 20 -215 37 -39
92 -22 106 32 3 12 4 103 2 200 -3 173 -4 178 -27 197 -30 24 -56 24 -81 -1z"/>
<path d="M4819 3079 c-20 -20 -21 -29 -17 -163 5 -144 13 -180 57 -230 48 -55
166 -74 228 -37 31 19 31 19 49 0 20 -23 57 -25 77 -4 31 30 36 405 7 440 -7
8 -27 15 -46 15 -55 0 -64 -25 -64 -168 0 -120 -1 -124 -26 -147 -37 -34 -96
-34 -129 0 -24 23 -25 29 -25 153 0 112 -2 131 -18 145 -26 23 -68 21 -93 -4z"/>
<path d="M5367 3082 c-15 -16 -17 -46 -17 -213 0 -183 1 -197 20 -217 24 -26
62 -29 84 -6 13 12 16 38 16 117 0 121 12 169 47 197 37 29 79 26 114 -9 29
-29 29 -30 29 -149 0 -106 2 -122 21 -146 25 -31 61 -34 89 -6 18 18 20 33 20
141 0 142 -11 194 -53 244 -38 47 -81 65 -151 65 -43 0 -61 -5 -82 -24 l-28
-23 -19 23 c-22 29 -67 32 -90 6z"/>
<path d="M5995 3085 c-43 -24 -84 -65 -106 -107 -60 -117 -11 -271 104 -330
51 -26 134 -21 176 10 27 20 29 20 47 2 27 -26 65 -34 88 -17 18 13 19 28 17
223 -1 129 -6 213 -13 221 -18 22 -67 15 -91 -11 l-21 -24 -28 21 c-37 28
-131 34 -173 12z m144 -120 c63 -32 76 -130 26 -181 -34 -34 -106 -34 -140 0
-48 48 -45 127 6 170 35 29 67 33 108 11z"/>
<path d="M6465 3076 l-26 -26 7 -188 c7 -208 14 -232 64 -232 57 0 60 12 60
229 0 212 -3 225 -52 236 -21 5 -33 1 -53 -19z"/>
<path d="M6742 3080 c-68 -41 -91 -123 -52 -185 20 -33 81 -66 147 -80 42 -8
60 -30 43 -50 -17 -20 -59 -19 -110 4 -50 22 -78 16 -99 -21 -47 -82 141 -153
255 -97 55 26 84 72 84 132 0 67 -40 110 -128 137 -88 26 -100 34 -83 54 17
21 61 20 106 -1 38 -18 58 -13 78 19 48 75 -145 146 -241 88z"/>
<path d="M7185 3084 c-53 -29 -94 -76 -115 -131 -23 -62 -24 -74 -9 -142 13
-61 74 -135 134 -162 86 -40 223 -11 253 53 27 57 -32 97 -94 63 -42 -23 -117
-16 -146 13 -35 35 -15 42 116 42 143 0 156 7 156 81 0 58 -34 124 -83 163
-34 27 -48 31 -110 33 -52 2 -80 -1 -102 -13z m149 -115 c14 -11 26 -29 26
-40 0 -16 -7 -19 -54 -19 -66 0 -116 9 -116 22 0 5 11 20 25 33 30 31 82 33
119 4z"/>
<path d="M7587 3082 c-15 -16 -17 -46 -17 -215 0 -184 1 -198 20 -217 25 -25
62 -26 83 -2 13 15 17 39 17 113 0 164 26 209 121 209 48 0 60 4 73 22 22 32
20 55 -9 83 -17 18 -35 25 -64 25 -40 0 -111 -27 -111 -42 0 -4 -4 -8 -10 -8
-5 0 -10 7 -10 15 0 34 -67 46 -93 17z"/>
<path d="M4982 2304 c-20 -14 -22 -23 -22 -120 0 -147 24 -195 107 -215 66
-15 123 -1 166 41 l37 38 0 125 c0 114 -2 127 -19 137 -24 12 -48 4 -61 -21
-6 -10 -10 -63 -10 -118 0 -92 -2 -101 -22 -115 -30 -21 -51 -20 -79 3 -22 17
-24 29 -29 126 -4 94 -8 109 -25 121 -18 12 -24 11 -43 -2z"/>
<path d="M5408 2309 c-16 -9 -18 -28 -18 -162 0 -106 4 -157 12 -165 8 -8 45
-12 100 -12 105 0 143 15 164 66 12 29 12 39 0 68 -8 18 -19 36 -24 40 -7 4
-6 16 4 34 21 41 17 71 -15 103 -27 27 -35 29 -104 29 -42 0 -81 2 -89 5 -7 2
-21 0 -30 -6z m161 -83 c13 -15 6 -42 -12 -49 -7 -2 -28 -4 -47 -3 -32 1 -35
4 -38 34 -3 32 -3 32 41 32 26 0 49 -6 56 -14z m-5 -122 c9 -3 16 -17 16 -30
0 -22 -4 -24 -55 -24 -51 0 -55 2 -55 23 0 13 3 27 7 30 8 9 66 9 87 1z"/>
<path d="M4556 2302 c-10 -16 -17 -237 -9 -282 7 -36 13 -46 31 -48 38 -6 52
15 52 74 l0 54 65 0 65 0 0 -49 c0 -27 3 -56 6 -65 9 -23 61 -21 74 3 15 28
13 294 -2 309 -18 18 -56 14 -68 -7 -5 -11 -10 -40 -10 -65 l0 -46 -65 0 -64
0 -3 63 c-3 62 -3 62 -35 65 -17 2 -34 -1 -37 -6z"/>
<path d="M3412 2148 c-7 -7 -12 -19 -12 -28 0 -34 21 -40 155 -40 89 0 135 4
143 12 17 17 15 55 -4 62 -30 12 -269 7 -282 -6z"/>
<path d="M6536 2145 c-19 -20 -20 -26 -3 -48 11 -15 29 -17 151 -15 119 3 140
5 150 21 8 12 8 22 0 35 -16 25 -274 31 -298 7z"/>
</g>
</svg>
